<svg width="108" height="29" viewBox="0 0 108 29" fill="none" xmlns="http://www.w3.org/2000/svg">
<g clip-path="url(#clip0_8596_41074)">
<path d="M68.7688 5.106V7.856H72.5128V8.556C72.5128 11.391 71.3828 12.894 68.3468 13.868L69.4938 16.498C71.5848 16.003 73.6438 14.756 74.4868 13.048C75.3968 14.756 77.3708 15.934 79.1928 16.378L80.6598 13.389C78.0118 12.809 76.1058 11.357 76.1058 8.556V7.873H79.7828V5.123H68.7848L68.7688 5.106ZM85.8038 4.73H82.3638V8.693H79.1418V11.545H82.3638V18.769H85.3828C85.6358 17.796 85.7878 16.139 85.7878 14.961V4.73H85.8038ZM86.1588 21.331H76.0388C75.7688 21.331 75.6838 21.263 75.6838 20.973V16.908H72.2438V22.39C72.2438 23.568 72.8338 24.132 74.0138 24.132H86.1418V21.314L86.1588 21.331ZM88.1148 5.072V7.805H92.0288V9.12C92.0288 12.604 91.3368 14.773 87.7778 16.361L89.1098 18.769C91.1508 18.001 93.0578 16.549 93.9348 14.688C94.8118 16.43 96.6668 17.881 98.4548 18.581L100.057 15.746C96.5998 14.431 95.4188 12.399 95.4188 9.086V7.788H99.2138V5.055H88.1148V5.072ZM108.002 9.888H104.595V4.73H101.306V24.15H104.19C104.46 23.005 104.595 21.04 104.595 19.504V12.689H108.002V9.888ZM40.3098 23.86H48.1698V20.223H39.3148V5.125H35.0308V23.861H40.3108L40.3098 23.86ZM57.5738 16.721H61.0488V20.001C60.4078 20.257 59.1588 20.496 57.9618 20.496C54.1158 20.496 52.8338 18.515 52.8338 14.501C52.8338 10.488 54.0488 8.404 57.9108 8.404C60.0528 8.404 61.2678 9.087 62.2798 10.385L64.9448 7.909C63.3248 5.552 60.4918 4.852 57.8268 4.852C51.8388 4.852 48.7018 8.165 48.7018 14.467C48.7018 20.769 51.5348 24.151 57.8098 24.151C60.6768 24.151 63.4938 23.399 65.0118 22.323V13.237H57.5908V16.738L57.5738 16.721Z" fill="#6B6B6B"/>
<path d="M14.32 29C22.231 29 28.64 22.51 28.64 14.5C28.64 6.49 22.232 0 14.32 0C6.41 0 0 6.49 0 14.5C0 22.51 6.41 29 14.32 29Z" fill="#A50034"/>
<path d="M13.7402 8.129V20.836H17.7382V19.708H14.8882V8.128L13.7402 8.129ZM9.73416 11.597C10.6792 11.597 11.4542 10.812 11.4542 9.855C11.4542 8.899 10.6792 8.113 9.73416 8.113C8.79016 8.113 8.01416 8.899 8.01416 9.855C8.01416 10.812 8.79016 11.597 9.73416 11.597Z" fill="white"/>
<path d="M14.883 2.375H14.31C7.69798 2.375 2.33398 7.823 2.33398 14.518C2.33398 17.763 3.58198 20.803 5.84298 23.092C8.11998 25.38 11.123 26.644 14.327 26.644C17.532 26.644 20.534 25.38 22.811 23.092C25.0675 20.8098 26.329 17.7274 26.32 14.518V13.972H17.767V15.099H25.189V15.252C24.802 20.974 20.096 25.517 14.344 25.517C11.443 25.517 8.72698 24.373 6.66898 22.289C5.65343 21.2666 4.84919 20.0543 4.30219 18.7211C3.75519 17.3879 3.47614 15.96 3.48098 14.519C3.48098 11.581 4.61098 8.814 6.66898 6.747C8.72698 4.664 11.443 3.519 14.344 3.519H14.917V2.392L14.883 2.375Z" fill="white"/>
</g>
<defs>
<clipPath id="clip0_8596_41074">
<rect width="108" height="29" fill="white"/>
</clipPath>
</defs>
</svg>
